<?xml version="1.0" encoding="iso-8859-1"?>
<!-- Uploaded to: SVG Repo, www.svgrepo.com, Generator: SVG Repo Mixer Tools -->
<svg fill="#000000" height="800px" width="800px" version="1.1" id="Layer_1" xmlns="http://www.w3.org/2000/svg" xmlns:xlink="http://www.w3.org/1999/xlink" 
	 viewBox="0 0 512 512" xml:space="preserve">
<g>
	<g>
		<g>
			<path d="M449.28,170.613H328.96c-45.973,0-51.52,29.013-51.627,42.133c-0.107,5.547,3.84,10.453,9.28,11.093
				c6.507,0.747,12.053-4.267,12.053-10.56c0-6.4,0-21.227,30.293-21.227h120.32c22.827,0,41.387,17.28,41.387,38.613v50.88
				c0,21.227-18.56,38.613-41.387,38.613H328.96c-30.293,0-30.293-14.827-30.293-21.227c0-6.293-5.547-11.413-12.053-10.56
				c-5.44,0.64-9.387,5.547-9.28,11.093c0.107,13.013,5.653,42.133,51.627,42.133h120.32c34.56,0,62.72-26.88,62.72-59.947v-50.88
				C512,197.493,483.84,170.613,449.28,170.613z"/>
			<path d="M225.387,288.053c-6.507-0.747-12.053,4.267-12.053,10.56c0,6.4,0,21.227-30.72,21.227h-121.6
				c-22.613,0.107-39.68-16.427-39.68-38.507v-50.88c0-21.973,17.067-38.613,39.68-38.613h121.6c30.72,0,30.72,14.827,30.72,21.227
				c0,6.293,5.547,11.413,12.053,10.56c5.44-0.64,9.387-5.547,9.28-11.093c-0.107-13.013-5.653-42.133-52.053-42.133h-121.6
				C26.773,170.613,0,196.96,0,230.56v50.88c0,33.493,26.773,59.84,61.013,59.84h121.6c46.4,0,51.947-29.013,52.053-42.133
				C234.773,293.707,230.827,288.8,225.387,288.053z"/>
			<path d="M128,255.947c0,5.867,4.8,10.667,10.667,10.667h234.667c5.867,0,10.667-4.8,10.667-10.667
				c0-5.867-4.8-10.667-10.667-10.667H138.667C132.8,245.28,128,250.08,128,255.947z"/>
		</g>
	</g>
</g>
</svg>