<svg width="55" height="91" viewBox="0 0 55 91" fill="none" xmlns="http://www.w3.org/2000/svg">
<path fill-rule="evenodd" clip-rule="evenodd" d="M24.7749 62.5752V50.3708V40.6317V35.2905C24.7749 32.2803 27.2151 29.8401 30.2253 29.8401C33.2355 29.8401 35.6758 32.2803 35.6758 35.2905V40.2637C41.3465 37.9361 45.3378 32.3792 45.3378 25.8943C45.3378 17.3137 38.3499 10.3577 29.7297 10.3577C21.1096 10.3577 14.1216 17.3137 14.1216 25.8943H14.1155C14.1196 25.976 14.1217 26.0582 14.1217 26.1409C14.1217 28.8649 11.8479 31.0731 9.0429 31.0731C6.23794 31.0731 3.96407 28.8649 3.96407 26.1409C3.96407 26.0582 3.96616 25.976 3.97031 25.8943H3.96878C3.96565 25.7302 3.96407 25.5658 3.96407 25.4011C3.96407 11.3724 15.3889 0 29.4821 0C43.5753 0 55.0001 11.3724 55.0001 25.4011C55.0001 37.3034 46.776 47.2938 35.6758 50.0487V62.5581C35.679 62.6589 35.679 62.7642 35.6758 62.8739V62.8861H35.6754C35.4914 68.7494 26.1259 86.8959 0.000183105 83.5993C4.2361 83.7477 23.0028 78.6143 24.7749 62.5752ZM14.865 30.8265H14.8649V46.2245L14.865 46.2246V30.8265Z" fill="#148EFF"/>
</svg>
